<?xml version="1.0" encoding="UTF-8" standalone="no"?>
<svg
   version="1.1"
   width="512"
   height="512"
   style="fill:none"
   id="svg73"
   sodipodi:docname="dotgrid-test.svg"
   inkscape:version="1.1 (1:1.1+202105261517+ce6663b3b7)"
   inkscape:export-filename="/home/laika/Downloads/logo-512.png"
   inkscape:export-xdpi="96"
   inkscape:export-ydpi="96"
   xmlns:inkscape="http://www.inkscape.org/namespaces/inkscape"
   xmlns:sodipodi="http://sodipodi.sourceforge.net/DTD/sodipodi-0.dtd"
   xmlns="http://www.w3.org/2000/svg"
   xmlns:svg="http://www.w3.org/2000/svg">
  <defs
     id="defs77" />
  <sodipodi:namedview
     id="namedview75"
     pagecolor="#505050"
     bordercolor="#ffffff"
     borderopacity="1"
     inkscape:pageshadow="0"
     inkscape:pageopacity="0"
     inkscape:pagecheckerboard="1"
     showgrid="false"
     inkscape:zoom="1.7681818"
     inkscape:cx="195.39846"
     inkscape:cy="330"
     inkscape:window-width="2488"
     inkscape:window-height="1376"
     inkscape:window-x="72"
     inkscape:window-y="27"
     inkscape:window-maximized="1"
     inkscape:current-layer="svg73" />
  <path
     d=""
     style="fill:none;stroke:#6a6a6a;stroke-width:15;stroke-linecap:round;stroke-linejoin:round"
     id="path67" />
  <path
     d=""
     style="fill:none;stroke:#4a4a4a;stroke-width:15;stroke-linecap:round;stroke-linejoin:round"
     id="path69" />
  <path
     d="M 256.00001,149.82492 A 106.17509,106.17511 0 0 0 149.82491,256.00003 106.17509,106.17511 0 0 0 256.00001,362.17513 106.17509,106.17511 0 0 0 362.17509,256.00003 106.17509,106.17511 0 0 0 256.00001,149.82492 M 149.82491,256.00003 Q 8.2580996,256.00003 8.2580996,8.2580996 M 256.00001,149.82492 Q 256.00001,8.2580996 8.2580996,8.2580996 M 362.17509,256.00003 q 141.56681,0 141.56681,-247.7419304 M 256.00001,149.82492 q 0,-141.5668204 247.74189,-141.5668204 M 362.17509,256.00003 m -106.17508,106.1751 q 0,141.56681 247.74189,141.56681 M 362.17509,256.00003 q 141.56681,0 141.56681,247.74191 M 149.82491,256.00003 q -141.5668104,0 -141.5668104,247.74191 M 256.00001,362.17513 q 0,141.56681 -247.7419104,141.56681 m 0,-247.74191 v 0 0 M 256.00001,8.2580996 v 0 0 m 0,495.4838404 v 0 0 M 503.7419,256.00003 v 0 0 0"
     style="fill:none;fill-opacity:1;stroke:#ffffff;stroke-width:16.5162;stroke-linecap:round;stroke-linejoin:round;stroke-opacity:1"
     id="path71"
     inkscape:export-filename="/home/laika/Downloads/germ-test-white.png"
     inkscape:export-xdpi="96"
     inkscape:export-ydpi="96" />
</svg>
